<svg width="18" height="17" viewBox="0 0 18 17" fill="none" xmlns="http://www.w3.org/2000/svg">
<path fill-rule="evenodd" clip-rule="evenodd" d="M10.8173 8.49997L14.1508 5.35166C14.6529 4.87745 14.6529 4.10861 14.1508 3.6344C13.6487 3.1602 12.8347 3.1602 12.3326 3.6344L8.99906 6.78271L5.66555 3.6344C5.16345 3.1602 4.34938 3.1602 3.84728 3.6344C3.34518 4.10861 3.34518 4.87745 3.84728 5.35166L7.18078 8.49997L3.84728 11.6483C3.34518 12.1225 3.34518 12.8913 3.84728 13.3655C4.34938 13.8397 5.16345 13.8397 5.66555 13.3655L8.99906 10.2172L12.3326 13.3655C12.8347 13.8397 13.6487 13.8397 14.1508 13.3655C14.6529 12.8913 14.6529 12.1225 14.1508 11.6483L10.8173 8.49997Z" fill="#6D778B"/>
</svg>
